PathFileType	4	(X/Y/Z)	 s03c0203.trc
DataRate	CameraRate	NumFrames	NumMarkers	Units	OrigDataRate	OrigDataStartFrame	OrigNumFrames
200	200	4	50	mm	200	751	2000
Frame#	Time	racr			lacr			c7			jug			rlel			rdr			llel			ldr			s2			lic			ric			lasi			rasi			rpsi			lpsi			rgt			lgt			rth1			rth2			rth3			rth4			rlfc			rmfc			rsh1			rsh2			rsh3			rsh4			rlmal			rcal			rtoe			rmt5			rmt1			lth1			lth2			lth4			lth3			llfc			lmfc			lsh1			lsh2			lsh3			lsh4			llmal			lcal			ltoe			lmt1			lmt5			SBIKE			LBIKE			RBIKE			
		X1	Y1	Z1	X2	Y2	Z2	X3	Y3	Z3	X4	Y4	Z4	X5	Y5	Z5	X6	Y6	Z6	X7	Y7	Z7	X8	Y8	Z8	X9	Y9	Z9	X10	Y10	Z10	X11	Y11	Z11	X12	Y12	Z12	X13	Y13	Z13	X14	Y14	Z14	X15	Y15	Z15	X16	Y16	Z16	X17	Y17	Z17	X18	Y18	Z18	X19	Y19	Z19	X20	Y20	Z20	X21	Y21	Z21	X22	Y22	Z22	X23	Y23	Z23	X24	Y24	Z24	X25	Y25	Z25	X26	Y26	Z26	X27	Y27	Z27	X28	Y28	Z28	X29	Y29	Z29	X30	Y30	Z30	X31	Y31	Z31	X32	Y32	Z32	X33	Y33	Z33	X34	Y34	Z34	X35	Y35	Z35	X36	Y36	Z36	X37	Y37	Z37	X38	Y38	Z38	X39	Y39	Z39	X40	Y40	Z40	X41	Y41	Z41	X42	Y42	Z42	X43	Y43	Z43	X44	Y44	Z44	X45	Y45	Z45	X46	Y46	Z46	X47	Y47	Z47	X48	Y48	Z48	X49	Y49	Z49	X50	Y50	Z50	
751	3.7550	562.837502	1400.460157	-135.930665	502.925828	1419.000706	-441.949092	463.454334	1494.664929	-277.220227	475.483767	1326.435454	-283.616731	599.026166	1210.959702	73.651764	744.557606	991.494266	-29.931872	516.769039	1163.676440	-561.121902	726.861354	985.522634	-442.705407	-58.525610	1224.941884	-198.218668	87.275993	1260.180649	-396.901798	133.338623	1246.491348	-36.464239	118.518741	1188.572126	-358.004281	153.242843	1178.761731	-85.187390	-22.682134	1271.532825	-151.210718	-28.958263	1276.446910	-232.521321	58.577264	1125.498869	-18.786764	47.830289	1183.111433	-414.706440	124.025765	973.375751	-3.826035	187.343119	910.489215	-5.117786	212.312954	828.859939	-16.551285	218.122214	929.385795	-14.682236	257.243904	711.856763	-51.844390	263.752315	698.796054	-170.258469	214.739196	550.322086	-26.781009	217.597987	462.251456	-42.352660	176.524004	384.250454	-45.185520	247.576779	458.346300	-66.876565	136.877912	257.653982	-69.328077	72.027603	223.512448	-105.468642	376.248654	160.692094	-110.734336	256.306480	163.628298	-39.503444	284.518678	179.491054	-151.975496	159.699668	1116.285863	-461.863228	243.421551	1103.104694	-479.555059	260.925871	1132.305388	-464.123797	310.072559	1046.697642	-499.367843	437.212839	985.781257	-502.984243	460.532058	970.187237	-372.937055	328.614099	851.370507	-495.741525	298.313456	777.222932	-463.992216	227.572968	724.429670	-444.620218	326.258633	761.744637	-442.784317	148.585111	633.412583	-407.617276	76.406064	614.438411	-353.612518	358.682046	488.342312	-354.843455	270.570953	520.822370	-312.918899	239.863154	513.049317	-426.237870	-216.544247	946.212845	-232.273542	-7.974355	84.480216	-436.872796	-13.856151	81.089280	-36.613787	
752	3.7600	562.095808	1400.458791	-138.637083	499.822765	1418.502342	-443.822579	461.678365	1494.406903	-279.359325	473.574765	1326.016441	-285.586501	599.279919	1211.530224	71.040950	744.472968	991.447348	-30.451290	515.443231	1162.645548	-561.114438	726.591001	985.621280	-442.580480	-59.627999	1224.930829	-197.788692	85.591200	1260.141419	-396.313869	132.330728	1247.197718	-35.915429	117.618911	1189.601853	-358.020341	152.467504	1179.345602	-84.386696	-23.525433	1271.402313	-150.801674	-30.324407	1276.614966	-231.985809	57.713715	1125.636003	-18.114222	45.999245	1183.711605	-413.662874	123.985480	973.510979	-3.449765	187.394519	910.799091	-4.536304	212.646786	829.234326	-15.686819	218.052706	929.865065	-14.152729	257.177730	711.645460	-50.633038	263.973133	698.628964	-169.207008	211.558707	550.882704	-25.705076	212.700352	462.845910	-41.416961	170.372603	385.438283	-44.361408	242.791667	458.295254	-65.784811	128.720856	259.468838	-68.936878	63.506744	226.008521	-105.499417	366.758555	158.968853	-110.623113	246.822725	163.355646	-39.644958	275.446801	178.981572	-152.025925	158.870989	1116.340412	-460.808757	242.683387	1103.496893	-478.354309	259.911112	1133.136725	-463.381637	309.722723	1047.333377	-497.147417	438.135424	989.142894	-500.521084	461.389528	974.161117	-369.923598	332.341463	852.529731	-493.314000	302.683264	778.037434	-462.832222	232.663692	723.998927	-444.298695	331.366211	763.047286	-442.076231	154.927655	631.368769	-408.053848	82.712274	610.818869	-354.217772	368.035848	491.802465	-354.919072	279.654851	523.007050	-312.495965	248.660969	513.480601	-426.538339	-216.629808	946.260559	-232.231781	-7.955837	84.472630	-436.881754	-13.837216	81.180419	-36.667184	
753	3.7650	561.207003	1400.388073	-141.416872	496.691898	1417.898992	-445.665421	459.857412	1494.049866	-281.424176	471.594533	1325.498131	-287.517763	599.429542	1212.143900	68.949718	744.407787	991.418770	-30.983165	514.303340	1161.733525	-561.301379	726.302671	985.722124	-442.496216	-60.450794	1224.404334	-196.324417	83.930082	1260.126734	-395.783644	131.156156	1247.770233	-35.311700	116.344240	1190.606282	-358.025277	151.539065	1179.607141	-83.717117	-24.598059	1271.191147	-150.394385	-31.821321	1276.625649	-231.568471	56.865005	1125.606475	-17.535157	44.927175	1184.129047	-413.245532	124.095781	973.557422	-3.304077	187.866840	911.191303	-4.243255	213.538793	829.819494	-15.040248	218.372415	930.516397	-13.754016	257.837153	711.649988	-49.563082	264.887323	698.641159	-168.157633	208.935921	551.563709	-24.584714	208.340677	463.702049	-40.562136	164.486907	387.157679	-43.554984	238.361892	458.534352	-64.772331	120.531521	261.761270	-68.728617	55.043973	229.138517	-105.521541	357.260599	157.766829	-110.600183	237.316582	163.737214	-39.770414	266.271744	178.984531	-152.147481	158.056419	1115.481613	-459.745276	241.988530	1103.308110	-476.989219	258.866782	1133.425435	-462.808818	309.756129	1047.536094	-494.396710	438.949534	991.964627	-497.672558	461.987056	977.723909	-366.646229	335.633290	853.355778	-491.736061	306.989487	778.296982	-461.648688	237.740566	722.988679	-443.953164	335.751887	763.650302	-440.553655	161.329711	628.710496	-408.546817	89.129254	606.418903	-355.306032	377.605970	495.356929	-356.434999	288.136730	523.958237	-312.866023	257.469435	513.313703	-426.861739	-216.717894	946.241237	-232.139376	-7.966795	84.479341	-436.897716	-13.835040	81.179378	-36.677764	
754	3.7700	560.343146	1400.022854	-144.175045	493.529587	1417.148711	-447.460488	457.972024	1493.454943	-283.510376	469.620075	1324.748830	-289.521826	599.514796	1212.577928	67.259463	744.317863	991.331399	-31.866593	512.922293	1160.632828	-561.421268	725.980582	985.818446	-442.452021	-61.796865	1224.128463	-195.916092	82.193576	1260.061947	-395.234215	129.878513	1247.983672	-34.771281	115.164509	1191.872802	-358.974490	150.386218	1179.638493	-82.968545	-25.709951	1270.934954	-150.076884	-33.374260	1276.446144	-231.110400	55.903983	1125.409079	-17.027481	43.769393	1184.258180	-413.112116	124.294941	973.550543	-3.339898	188.556390	911.725656	-4.194071	214.871788	830.482649	-14.518598	218.910314	931.118648	-13.681559	259.130862	711.945472	-48.535274	266.474162	698.854302	-167.161826	206.928890	552.731539	-23.456965	204.328296	464.851004	-40.004243	158.879322	389.382287	-42.741970	234.226671	459.263435	-63.929858	111.837730	265.371917	-67.053282	46.661519	233.083637	-105.548322	347.756954	157.113489	-110.529750	227.876445	164.659537	-39.893639	257.267301	179.423824	-152.219410	157.416518	1114.349190	-458.467462	241.437953	1102.812001	-475.506468	257.950099	1133.461146	-462.099352	309.906842	1047.221349	-491.140687	439.536893	994.221930	-494.747835	462.173100	980.544077	-363.380464	338.694609	853.631259	-490.062213	311.106409	777.940182	-460.470615	242.657691	721.432963	-443.642461	339.793089	764.413966	-440.067250	167.617042	625.342042	-408.979065	95.448315	601.252187	-356.032780	386.727937	498.088811	-356.082497	296.571611	524.266906	-312.975465	266.279065	512.574773	-427.085694	-216.715442	946.223560	-232.267314	-7.970184	84.478518	-436.921119	-13.832610	81.193324	-36.682080	
